<svg width="62" height="62" viewBox="0 0 62 62" fill="none" xmlns="http://www.w3.org/2000/svg">
<g clip-path="url(#clip0)">
<path d="M41.749 23.0547L41.3035 21.6169L16.3539 29.3488L16.7994 30.7865L18.1361 35.0997L44.5533 26.9131L43.2167 22.5999L41.749 23.0547Z" fill="#E74444"/>
<path d="M30.3021 21.8746L28.6713 22.38L13.9951 26.9281L15.3318 31.2413L30.008 26.6932L31.6387 26.1879L44.6842 22.1451L43.3476 17.8318L30.3021 21.8746Z" fill="#3BA673"/>
<path d="M19.0136 11.9784L30.7546 8.33984C33.4792 7.49547 36.4209 7.74602 38.9324 9.03637C41.444 10.3267 43.3196 12.5512 44.1468 15.2204L45.2607 18.8147L12.973 28.8206L11.8591 25.2263C11.0319 22.5571 11.321 19.6618 12.6627 17.1773C14.0045 14.6928 16.2889 12.8227 19.0136 11.9784Z" fill="#EA8333"/>
<path d="M19.5509 18.903C19.9562 18.7774 20.185 18.3538 20.062 17.9567C19.9389 17.5597 19.5107 17.3397 19.1054 17.4653C18.7001 17.5909 18.4713 18.0145 18.5944 18.4116C18.7174 18.8086 19.1457 19.0286 19.5509 18.903Z" fill="#FAE8D8"/>
<path d="M22.5517 15.6094C22.957 15.4838 23.1858 15.0601 23.0627 14.6631C22.9397 14.2661 22.5114 14.046 22.1061 14.1716C21.7009 14.2972 21.4721 14.7209 21.5951 15.1179C21.7181 15.5149 22.1464 15.735 22.5517 15.6094Z" fill="#FAE8D8"/>
<path d="M29.8898 13.3353C30.2951 13.2097 30.5239 12.7861 30.4008 12.3891C30.2778 11.992 29.8495 11.772 29.4443 11.8976C29.039 12.0232 28.8102 12.4469 28.9332 12.8439C29.0563 13.2409 29.4845 13.4609 29.8898 13.3353Z" fill="#FAE8D8"/>
<path d="M26.8891 16.629C27.2944 16.5034 27.5232 16.0797 27.4001 15.6827C27.2771 15.2857 26.8488 15.0656 26.4435 15.1912C26.0383 15.3168 25.8095 15.7405 25.9325 16.1375C26.0555 16.5345 26.4838 16.7546 26.8891 16.629Z" fill="#FAE8D8"/>
<path d="M34.2272 14.3549C34.6325 14.2293 34.8613 13.8057 34.7382 13.4087C34.6152 13.0116 34.1869 12.7916 33.7817 12.9172C33.3764 13.0428 33.1476 13.4664 33.2706 13.8635C33.3937 14.2605 33.8219 14.4805 34.2272 14.3549Z" fill="#FAE8D8"/>
<path d="M31.4756 26.2383L32.9432 25.7835L33.8343 28.659L32.3667 29.1138L31.4756 26.2383Z" fill="#CE3536"/>
<path d="M24.714 25.1821L26.1816 24.7273L27.0727 27.6028L25.6051 28.0576L24.714 25.1821Z" fill="#338F64"/>
<path d="M16.4457 34.8357L18.2279 40.5867C18.3461 40.968 18.614 41.2858 18.9728 41.4701C19.3316 41.6544 19.7518 41.6902 20.1411 41.5696L20.5866 43.0074L47.0038 34.8207L46.5583 33.383C46.9475 33.2623 47.2739 32.9952 47.4656 32.6403C47.6572 32.2853 47.6985 31.8717 47.5804 31.4904L45.7981 25.7394L16.4457 34.8357Z" fill="#794832"/>
<path d="M49.4018 26.9864C49.4018 26.9864 49.3363 29.3704 46.401 30.2801C43.4658 31.1897 42.0636 29.2605 42.0636 29.2605C42.0636 29.2605 41.9982 31.6445 39.0629 32.5541C36.1277 33.4638 34.7255 31.5346 34.7255 31.5346C34.7255 31.5346 34.66 33.9186 31.7248 34.8282C28.7896 35.7378 27.3874 33.8086 27.3874 33.8086C27.3874 33.8086 27.3219 36.1926 24.3867 37.1023C21.4514 38.0119 20.0493 36.0827 20.0493 36.0827C20.0493 36.0827 19.9838 38.4667 17.0486 39.3763C14.1133 40.286 12.7112 38.3568 12.7112 38.3568L14.1566 35.6803C14.3464 35.3288 14.6043 35.0167 14.9157 34.7619C15.227 34.507 15.5857 34.3143 15.9711 34.1948L44.3596 25.3973C45.138 25.1561 45.9785 25.2277 46.6961 25.5964L49.4018 26.9864Z" fill="#3BA673"/>
<path d="M20.1411 41.5696L46.5583 33.383C46.9475 33.2623 47.3678 33.2981 47.7266 33.4825C48.0854 33.6668 48.3533 33.9846 48.4715 34.3659L50.2537 40.1169L20.9012 49.2132L19.119 43.4622C19.0008 43.0808 19.0421 42.6672 19.2338 42.3123C19.4255 41.9574 19.7518 41.6902 20.1411 41.5696Z" fill="#794832"/>
<path d="M18.988 48.2302L51.2757 38.2243L52.1669 41.0998C52.6395 42.6251 52.4743 44.2795 51.7076 45.6992C50.9409 47.1189 49.6355 48.1876 48.0786 48.6701L27.5319 55.0375C25.9749 55.52 24.294 55.3768 22.8588 54.6394C21.4236 53.9021 20.3518 52.631 19.8791 51.1057L18.988 48.2302Z" fill="#EA8333"/>
<path d="M20.8749 41.3422L28.9731 46.7117L44.3568 34.0652L20.8749 41.3422Z" fill="#FDD14B"/>
</g>
<defs>
<clipPath id="clip0">
<rect width="49.1674" height="48.1665" fill="white" transform="translate(0 15.5069) rotate(-17.2181)"/>
</clipPath>
</defs>
</svg>
