<svg width="70" height="71" viewBox="0 0 70 71" fill="none" xmlns="http://www.w3.org/2000/svg">
<g clip-path="url(#clip0)">
<path d="M27.8035 20.0212L27.0929 21.551L16.1728 48.3752C15.6833 49.5776 15.6595 50.914 16.1063 52.1081C16.553 53.3022 17.436 54.2626 18.5728 54.7906L30.8201 60.4795C31.9568 61.0075 33.2603 61.0628 34.4609 60.6339C35.6615 60.2049 36.6674 59.3247 37.2704 58.1751L50.7235 32.5274L51.4341 30.9976L27.8035 20.0212Z" fill="#D9DBDD"/>
<path d="M37.0481 25.2453L41.4788 27.3034L37.5706 35.7172L33.1399 33.6592L37.0481 25.2453Z" fill="#FDD14B"/>
<path d="M43.0881 12.2421L47.5189 14.3001L41.8342 26.5385L37.4034 24.4804L43.0881 12.2421Z" fill="#FDD14B"/>
<path d="M47.5857 38.5094L37.2704 58.1751C36.6674 59.3246 35.6615 60.2049 34.4609 60.6338C33.2603 61.0628 31.9568 61.0075 30.8201 60.4795L18.5728 54.7906C17.436 54.2626 16.553 53.3022 16.1062 52.1081C15.6595 50.914 15.6833 49.5776 16.1727 48.3752L24.5459 27.8074L47.5857 38.5094Z" fill="#FAE8D8"/>
<path d="M27.7756 18.1484L52.8831 29.8109C53.2748 29.9928 53.5756 30.3285 53.7193 30.744C53.863 31.1596 53.8379 31.6209 53.6494 32.0267L52.9388 33.5565L24.8775 20.522L25.5881 18.9922C25.7766 18.5865 26.1129 18.2696 26.5232 18.1114C26.9334 17.9532 27.3839 17.9665 27.7756 18.1484Z" fill="#93573D"/>
<path d="M20.21 51.8314C21.0257 52.2102 22.0051 51.8325 22.3975 50.9876C22.79 50.1427 22.4469 49.1507 21.6312 48.7718C20.8155 48.3929 19.8362 48.7707 19.4437 49.6155C19.0513 50.4604 19.3944 51.4525 20.21 51.8314Z" fill="#AB6647"/>
<path d="M24.9124 47.5061C25.7281 47.885 26.7075 47.5072 27.0999 46.6623C27.4924 45.8175 27.1493 44.8254 26.3336 44.4465C25.5179 44.0676 24.5385 44.4454 24.1461 45.2903C23.7537 46.1352 24.0967 47.1272 24.9124 47.5061Z" fill="#AB6647"/>
<path d="M32.2969 50.9363C33.1126 51.3152 34.092 50.9374 34.4844 50.0925C34.8769 49.2476 34.5338 48.2556 33.7181 47.8767C32.9024 47.4978 31.9231 47.8756 31.5306 48.7205C31.1382 49.5653 31.4813 50.5574 32.2969 50.9363Z" fill="#AB6647"/>
<path d="M26.1176 54.5755C26.9333 54.9544 27.9127 54.5766 28.3051 53.7317C28.6976 52.8869 28.3545 51.8948 27.5388 51.5159C26.7231 51.137 25.7437 51.5148 25.3513 52.3597C24.9589 53.2046 25.302 54.1966 26.1176 54.5755Z" fill="#AB6647"/>
<path d="M32.0253 57.3196C32.841 57.6985 33.8204 57.3207 34.2128 56.4758C34.6053 55.6309 34.2622 54.6389 33.4465 54.26C32.6308 53.8811 31.6515 54.2589 31.259 55.1038C30.8666 55.9486 31.2097 56.9407 32.0253 57.3196Z" fill="#AB6647"/>
</g>
<defs>
<clipPath id="clip0">
<rect width="52.1109" height="53.9767" fill="white" transform="translate(22.7388) rotate(24.9149)"/>
</clipPath>
</defs>
</svg>
