<svg width="78" height="78" viewBox="0 0 78 78" fill="none" xmlns="http://www.w3.org/2000/svg">
<path d="M42.6562 15.8438H34.125V74.3438H42.6562C58.8106 74.3438 71.9062 61.2481 71.9062 45.0938C71.9062 28.9394 58.8106 15.8438 42.6562 15.8438Z" fill="#F7B030"/>
<path d="M71.9062 45.0938H63.375C63.0518 45.0938 62.7418 44.9653 62.5132 44.7368C62.2847 44.5082 62.1562 44.1982 62.1562 43.875C62.1562 43.5518 62.2847 43.2418 62.5132 43.0132C62.7418 42.7847 63.0518 42.6562 63.375 42.6562H71.8057C71.8727 43.4606 71.9062 44.2731 71.9062 45.0938V45.0938Z" fill="#EBA72E"/>
<path d="M70.2411 35.3438H60.9375C60.6143 35.3438 60.3043 35.2153 60.0757 34.9868C59.8472 34.7582 59.7188 34.4482 59.7188 34.125C59.7188 33.8018 59.8472 33.4918 60.0757 33.2632C60.3043 33.0347 60.6143 32.9062 60.9375 32.9062H69.2524C69.618 33.7 69.9476 34.5125 70.2411 35.3438Z" fill="#EBA72E"/>
<path d="M64.4566 25.5938H54.8438C54.5205 25.5938 54.2105 25.4653 53.982 25.2368C53.7534 25.0082 53.625 24.6982 53.625 24.375C53.625 24.0518 53.7534 23.7418 53.982 23.5132C54.2105 23.2847 54.5205 23.1562 54.8438 23.1562H62.0024C62.868 23.9195 63.6875 24.7334 64.4566 25.5938V25.5938Z" fill="#EBA72E"/>
<path d="M70.9846 52.4062C70.7713 53.2335 70.5235 54.046 70.2411 54.8438H62.1563C61.833 54.8438 61.523 54.7153 61.2945 54.4868C61.0659 54.2582 60.9375 53.9482 60.9375 53.625C60.9375 53.3018 61.0659 52.9918 61.2945 52.7632C61.523 52.5347 61.833 52.4062 62.1563 52.4062H70.9846Z" fill="#EBA72E"/>
<path d="M66.4158 62.1562C65.807 63.0033 65.153 63.817 64.4566 64.5938H56.0625C55.7393 64.5938 55.4293 64.4653 55.2007 64.2368C54.9722 64.0082 54.8438 63.6982 54.8438 63.375C54.8438 63.0518 54.9722 62.7418 55.2007 62.5132C55.4293 62.2847 55.7393 62.1562 56.0625 62.1562H66.4158Z" fill="#EBA72E"/>
<path d="M35.3438 74.3438C51.4981 74.3438 64.5938 61.2481 64.5938 45.0938C64.5938 28.9394 51.4981 15.8438 35.3438 15.8438C19.1894 15.8438 6.09375 28.9394 6.09375 45.0938C6.09375 61.2481 19.1894 74.3438 35.3438 74.3438Z" fill="#FFD33A"/>
<path d="M5.94141 10.9688C8.83746 9.17262 9.43709 6.49838 9.59766 3.65625C9.57267 6.34329 10.5644 9.42018 13.2539 10.9688C10.7424 12.6965 9.82952 16.0183 9.59766 18.2812C9.36579 16.0183 8.45295 12.6965 5.94141 10.9688Z" fill="#EB423F"/>
<path d="M43.875 15.8438C46.7711 14.0476 47.3707 11.3734 47.5312 8.53125C47.5063 11.2183 48.498 14.2952 51.1875 15.8438C48.676 17.5715 47.7631 20.8933 47.5312 23.1562C47.2994 20.8933 46.3865 17.5715 43.875 15.8438Z" fill="#EB423F"/>
<path d="M13.4062 67.0312C16.3023 65.2351 16.9019 62.5609 17.0625 59.7188C17.0375 62.4058 18.0293 65.4827 20.7188 67.0312C18.2072 68.759 17.2944 72.0808 17.0625 74.3438C16.8306 72.0808 15.9178 68.759 13.4062 67.0312Z" fill="#EB423F"/>
<path d="M35.3437 43.875C34.6206 43.875 33.9137 43.6606 33.3124 43.2588C32.7112 42.8571 32.2425 42.286 31.9658 41.6179C31.6891 40.9498 31.6167 40.2147 31.7577 39.5055C31.8988 38.7962 32.2471 38.1447 32.7584 37.6334C33.2697 37.1221 33.9212 36.7738 34.6304 36.6328C35.3397 36.4917 36.0748 36.5641 36.7429 36.8408C37.411 37.1175 37.982 37.5862 38.3838 38.1874C38.7856 38.7887 39 39.4956 39 40.2188C39 40.542 39.1284 40.852 39.357 41.0805C39.5855 41.3091 39.8955 41.4375 40.2187 41.4375C40.542 41.4375 40.852 41.3091 41.0805 41.0805C41.3091 40.852 41.4375 40.542 41.4375 40.2188C41.4357 38.8146 40.9498 37.454 40.0618 36.3663C39.1738 35.2786 37.9379 34.5303 36.5625 34.2476V31.6875C36.5625 31.3643 36.4341 31.0543 36.2055 30.8257C35.977 30.5972 35.667 30.4688 35.3437 30.4688C35.0205 30.4688 34.7105 30.5972 34.482 30.8257C34.2534 31.0543 34.125 31.3643 34.125 31.6875V34.2476C32.6449 34.5492 31.3295 35.3897 30.434 36.6061C29.5385 37.8226 29.1267 39.3283 29.2785 40.8312C29.4303 42.3341 30.1349 43.727 31.2556 44.7398C32.3763 45.7526 33.8332 46.3131 35.3437 46.3125C36.0669 46.3125 36.7738 46.5269 37.375 46.9287C37.9763 47.3304 38.4449 47.9015 38.7217 48.5696C38.9984 49.2377 39.0708 49.9728 38.9297 50.682C38.7887 51.3913 38.4404 52.0428 37.9291 52.5541C37.4178 53.0654 36.7663 53.4137 36.057 53.5547C35.3478 53.6958 34.6126 53.6234 33.9446 53.3467C33.2765 53.0699 32.7054 52.6013 32.3037 52.0001C31.9019 51.3988 31.6875 50.6919 31.6875 49.9688C31.6875 49.6455 31.5591 49.3355 31.3305 49.107C31.102 48.8784 30.792 48.75 30.4687 48.75C30.1455 48.75 29.8355 48.8784 29.607 49.107C29.3784 49.3355 29.25 49.6455 29.25 49.9688C29.2516 51.373 29.7374 52.7338 30.6255 53.8217C31.5135 54.9095 32.7495 55.6579 34.125 55.9406V58.5C34.125 58.8232 34.2534 59.1332 34.482 59.3618C34.7105 59.5903 35.0205 59.7188 35.3437 59.7188C35.667 59.7188 35.977 59.5903 36.2055 59.3618C36.4341 59.1332 36.5625 58.8232 36.5625 58.5V55.9406C38.0435 55.6399 39.3599 54.7996 40.2561 53.5829C41.1524 52.3662 41.5646 50.8599 41.4128 49.3563C41.2609 47.8528 40.5558 46.4593 39.4343 45.4464C38.3128 44.4335 36.8549 43.8735 35.3437 43.875V43.875Z" fill="#EBA72E"/>
<path d="M35.3438 68.2502C32.2503 68.2561 29.1875 67.6382 26.3383 66.4335C26.0405 66.3078 25.8049 66.0688 25.6833 65.7694C25.5617 65.4699 25.564 65.1343 25.6898 64.8366C25.8156 64.5388 26.0545 64.3032 26.354 64.1816C26.6535 64.06 26.989 64.0624 27.2868 64.1881C29.8359 65.2657 32.5762 65.8182 35.3438 65.8127C46.768 65.8127 56.0625 56.5184 56.0625 45.094C56.0692 40.996 54.8546 36.989 52.5738 33.5844C52.394 33.3157 52.3283 32.9866 52.3912 32.6695C52.454 32.3524 52.6403 32.0732 52.909 31.8934C53.1777 31.7136 53.5068 31.6479 53.8239 31.7108C54.141 31.7736 54.4202 31.9599 54.6 32.2286C57.1495 36.0342 58.5073 40.5133 58.5 45.094C58.5 57.8624 48.1121 68.2502 35.3438 68.2502V68.2502Z" fill="#EBA72E"/>
<path d="M14.2632 52.4062C13.9989 52.4061 13.7419 52.3201 13.5308 52.1612C13.3197 52.0022 13.1659 51.779 13.0927 51.5251C12.4908 49.4344 12.1861 47.2694 12.1875 45.0938C12.1875 32.3254 22.5754 21.9375 35.3437 21.9375C36.6364 21.9373 37.9268 22.0443 39.2017 22.2574C39.3604 22.283 39.5124 22.3397 39.6491 22.4242C39.7858 22.5088 39.9044 22.6195 39.9981 22.7501C40.0918 22.8807 40.1588 23.0285 40.1951 23.1851C40.2315 23.3417 40.2365 23.5039 40.2099 23.6624C40.1833 23.8209 40.1256 23.9726 40.0401 24.1087C39.9547 24.2448 39.8431 24.3627 39.7119 24.4555C39.5807 24.5484 39.4325 24.6144 39.2757 24.6497C39.1189 24.685 38.9566 24.6889 38.7983 24.6613C37.6567 24.4705 36.5012 24.3748 35.3437 24.375C23.9193 24.375 14.625 33.6693 14.625 45.0938C14.6235 47.0409 14.8961 48.9785 15.4347 50.8496C15.4869 51.0311 15.4963 51.2223 15.462 51.4081C15.4277 51.5939 15.3507 51.7691 15.2371 51.9201C15.1235 52.071 14.9764 52.1935 14.8074 52.2778C14.6384 52.3622 14.4521 52.4062 14.2632 52.4062V52.4062Z" fill="#EBA72E"/>
</svg>
