<svg width="82" height="82" viewBox="0 0 82 82" fill="none" xmlns="http://www.w3.org/2000/svg">
<path d="M25.2919 56.4119L8.99922 40.18C5.72571 36.8764 3.89585 32.4094 3.91086 27.7586C3.92587 23.1078 5.78452 18.6528 9.07928 15.3703C12.374 12.0879 16.836 10.2459 21.4868 10.2483C26.1376 10.2506 30.5977 12.0972 33.8891 15.383L41 22.4667L48.111 15.383C49.7376 13.7415 51.672 12.437 53.8036 11.5443C55.9352 10.6516 58.222 10.1882 60.5329 10.1808C62.8438 10.1733 65.1335 10.6219 67.2708 11.5008C69.4081 12.3797 71.351 13.6717 72.9881 15.3027C74.6253 16.9338 75.9245 18.8718 76.8114 21.0058C77.6983 23.1398 78.1555 25.4278 78.1566 27.7387C78.1578 30.0497 77.703 32.3382 76.8183 34.4731C75.9336 36.608 74.6363 38.5473 73.0009 40.18L56.7082 56.4119L51.2757 61.8235C51.2757 61.8235 41.7432 71.2103 41 71.75C40.2569 71.2103 30.7244 61.8235 30.7244 61.8235L25.2919 56.4119Z" fill="#CFDB8C"/>
<path d="M21.7812 34.5938H30.75C33.4685 34.5938 36.0756 35.6737 37.9978 37.5959C39.9201 39.5182 41 42.1253 41 44.8438V47.4062H32.0312C29.3128 47.4062 26.7057 46.3263 24.7834 44.4041C22.8612 42.4818 21.7813 39.8747 21.7812 37.1562V34.5938Z" fill="#88C791"/>
<path d="M49.9683 39.7185H40.9995V37.156C40.9995 34.4375 42.0794 31.8304 44.0017 29.9082C45.9239 27.9859 48.531 26.906 51.2495 26.906H60.2183V29.4685C60.2183 32.187 59.1384 34.7941 57.2161 36.7164C55.2939 38.6386 52.6867 39.7185 49.9683 39.7185Z" fill="#88C791"/>
<path d="M51.0112 32.5679C50.9135 32.431 50.7897 32.3147 50.6469 32.2256C50.5042 32.1365 50.3453 32.0764 50.1793 32.0487C50.0133 32.021 49.8435 32.0263 49.6796 32.0643C49.5157 32.1022 49.3608 32.1721 49.2239 32.2699L40.2551 38.6761C40.0892 38.7946 39.9541 38.9511 39.8609 39.1325C39.7678 39.3138 39.7193 39.5148 39.7196 39.7187H39.7188V44.9166L32.776 39.9574C32.4995 39.7599 32.1558 39.6803 31.8206 39.7361C31.4854 39.792 31.1862 39.9787 30.9887 40.2553C30.7912 40.5318 30.7116 40.8754 30.7674 41.2106C30.8233 41.5458 31.01 41.8451 31.2866 42.0426L39.7188 48.0656V52.5314C39.7188 52.8712 39.8538 53.1971 40.094 53.4374C40.3343 53.6777 40.6602 53.8126 41 53.8126C41.3398 53.8126 41.6657 53.6777 41.906 53.4374C42.1463 53.1971 42.2813 52.8712 42.2813 52.5314V40.3781L50.7135 34.3551C50.99 34.1576 51.1766 33.8583 51.2325 33.5232C51.2883 33.188 51.2087 32.8444 51.0112 32.5679V32.5679Z" fill="#6A9C72"/>
<path d="M54.2736 58.838L51.2755 61.8233C51.2755 61.8233 41.743 71.21 41 71.7499C40.2569 71.2102 30.7244 61.8234 30.7244 61.8234L27.7263 58.8381L35.9134 54.1584C37.4624 53.2726 39.2157 52.8066 41 52.8066C42.7843 52.8066 44.5377 53.2726 46.0866 54.1584L54.2736 58.838Z" fill="#B37A60"/>
</svg>
