<?xml version="1.0" standalone="no"?>
<!DOCTYPE svg PUBLIC "-//W3C//DTD SVG 20010904//EN"
 "http://www.w3.org/TR/2001/REC-SVG-20010904/DTD/svg10.dtd">
<svg version="1.0" xmlns="http://www.w3.org/2000/svg"
 width="1300.000000pt" height="1300.000000pt" viewBox="0 0 1300.000000 1300.000000"
 preserveAspectRatio="xMidYMid meet">
<metadata>
Created by potrace 1.16, written by Peter Selinger 2001-2019
</metadata>
<g transform="translate(0.000000,1300.000000) scale(0.100000,-0.100000)"
fill="#303030" stroke="none">
<path d="M8188 11864 c-128 -31 -277 -121 -373 -227 -126 -137 -179 -253 -220
-477 -56 -311 -73 -356 -179 -467 -33 -36 -67 -76 -75 -90 -16 -31 -9 -88 15
-114 16 -18 15 -21 -20 -55 l-37 -36 -40 16 c-56 23 -107 20 -166 -9 -91 -46
-136 -152 -104 -248 18 -53 83 -115 136 -129 41 -11 46 -16 56 -52 15 -54 63
-112 110 -130 95 -38 193 -10 253 73 28 39 31 50 31 115 0 48 -5 79 -14 90
-13 15 -10 21 22 54 l36 36 36 -17 c66 -32 87 -24 190 70 39 36 92 76 119 90
46 23 294 83 402 97 61 8 169 43 239 79 122 61 265 196 333 314 67 116 85 181
90 326 4 117 2 134 -23 210 -31 94 -85 191 -144 259 -52 59 -170 147 -241 180
-119 55 -305 73 -432 42z m346 -88 c96 -36 146 -67 221 -137 63 -60 122 -143
117 -166 -2 -7 2 -13 7 -13 32 0 89 -229 76 -308 -4 -26 -8 -54 -9 -62 -12
-75 -34 -142 -46 -135 -4 3 -11 -11 -14 -31 -6 -30 -9 -34 -22 -23 -13 11 -14
9 -9 -14 7 -27 -8 -39 -19 -14 -3 6 -3 2 -1 -9 10 -40 -115 -169 -230 -236
-88 -53 -181 -84 -320 -109 -60 -10 -129 -23 -152 -28 -27 -5 -40 -5 -36 1 3
7 -11 8 -38 4 -33 -4 -39 -3 -24 4 17 9 16 9 -8 5 -17 -4 -26 -2 -23 4 4 5 -3
7 -15 4 -19 -5 -18 -7 12 -20 19 -8 45 -11 59 -8 20 4 22 3 8 -5 -9 -6 -29
-12 -45 -14 -35 -5 -96 -28 -104 -40 -4 -5 -12 -5 -18 -2 -6 4 -10 3 -9 -2 3
-11 -9 -12 -31 -4 -11 4 -10 7 5 14 19 8 19 8 0 5 -12 -1 -20 -11 -21 -24 -1
-15 3 -19 14 -15 9 3 -15 -25 -54 -61 -38 -37 -78 -70 -88 -73 -12 -4 -31 7
-59 35 -34 34 -38 44 -28 56 10 12 10 15 -3 15 -8 0 -17 -5 -19 -12 -2 -6 -48
31 -101 83 -112 109 -116 123 -58 178 52 49 119 136 137 180 19 45 70 265 84
358 20 146 82 291 165 388 49 58 116 125 125 125 4 0 13 7 20 15 21 26 124 79
195 101 100 32 260 27 359 -10z m-1000 -1545 c-73 -68 -76 -76 -48 -129 28
-52 30 -79 10 -127 -38 -90 -177 -101 -231 -19 -10 15 -20 50 -24 78 l-6 51
-53 6 c-65 8 -94 27 -117 75 -35 75 4 161 86 185 40 13 98 0 119 -27 19 -22
31 -17 95 41 l60 54 75 -75 74 -75 -40 -38z"/>
<path d="M2005 11836 c-271 -53 -475 -193 -638 -439 -67 -101 -77 -111 -148
-153 -180 -105 -292 -252 -345 -449 -19 -69 -18 -253 2 -328 72 -277 304 -486
634 -568 307 -77 668 -35 965 113 304 151 506 374 592 655 24 80 27 102 27
253 0 151 -3 173 -27 253 -49 160 -120 278 -239 398 -121 122 -266 205 -436
250 -99 27 -289 34 -387 15z m285 -70 c157 -23 313 -91 436 -192 69 -57 168
-187 214 -281 61 -126 84 -224 84 -368 1 -231 -66 -402 -232 -593 -54 -62 -54
-63 -36 -85 l19 -22 -23 19 c-22 19 -23 19 -50 -2 -288 -226 -641 -334 -984
-302 -183 17 -320 58 -447 134 -226 135 -340 322 -341 561 0 238 125 439 348
560 62 33 88 62 157 171 140 224 366 370 620 403 102 12 129 12 235 -3z"/>
<path d="M2005 11620 c-192 -50 -340 -164 -447 -343 -63 -104 -119 -161 -223
-222 -144 -85 -223 -191 -246 -334 -56 -340 264 -602 736 -602 332 -1 653 130
852 346 321 348 231 884 -183 1097 -149 77 -336 99 -489 58z m222 -585 c21 -9
50 -32 66 -52 22 -30 27 -46 27 -95 0 -52 -3 -62 -35 -96 -28 -31 -32 -41 -22
-53 10 -11 9 -12 -1 -3 -10 8 -24 9 -49 2 -76 -21 -160 19 -189 89 -16 37 -18
101 -4 123 6 10 3 22 -13 40 l-22 25 23 -19 c22 -19 23 -19 50 7 50 48 105 58
169 32z"/>
<path d="M10915 11791 c-151 -25 -322 -97 -425 -180 -273 -218 -390 -455 -390
-786 0 -212 69 -365 213 -470 l38 -28 32 29 32 29 -28 -31 -28 -32 35 -22 36
-22 -41 -58 c-34 -48 -41 -66 -41 -106 0 -31 7 -56 20 -73 37 -51 60 -56 302
-61 l225 -5 50 -30 c70 -42 138 -41 219 3 l60 32 207 0 c123 0 219 4 236 11
63 23 101 89 89 154 -4 18 -22 52 -41 76 -19 24 -35 49 -35 54 0 6 26 26 58
45 161 97 241 226 263 424 31 274 -72 570 -265 761 -194 192 -395 282 -651
290 -66 2 -142 0 -170 -4z m103 -608 l2 -532 22 -7 c42 -13 48 14 48 213 0
101 -3 183 -7 183 -4 0 -18 -10 -32 -22 -16 -14 -13 -8 7 13 l32 35 0 327 c0
305 1 327 18 327 40 0 151 -22 212 -42 77 -24 204 -89 242 -122 l27 -24 -23
-64 c-13 -34 -77 -202 -142 -373 -190 -500 -185 -485 -148 -499 25 -10 39 4
61 62 11 31 37 100 57 152 19 52 63 167 96 255 34 88 70 183 80 210 10 28 30
81 44 119 14 38 26 71 26 72 0 2 6 4 14 4 37 0 170 -191 215 -309 58 -150 65
-128 -105 -309 -82 -86 -187 -196 -233 -245 -96 -99 -117 -127 -108 -151 12
-31 51 -18 98 33 225 244 393 419 400 415 13 -8 10 -119 -5 -205 -25 -136 -96
-240 -219 -315 -34 -21 -132 -83 -217 -139 -406 -266 -397 -261 -455 -249 -16
3 -79 39 -140 78 -60 40 -155 101 -210 137 -248 160 -292 189 -329 216 -54 39
-123 135 -141 196 -21 71 -36 215 -27 256 l8 35 179 -192 c98 -106 182 -192
185 -192 4 0 16 10 28 23 l22 23 -102 109 c-57 61 -147 155 -200 211 -88 90
-98 104 -98 137 0 66 71 228 140 322 37 50 111 127 117 121 3 -3 201 -524 250
-659 31 -85 38 -96 51 -85 13 11 14 11 3 -7 -11 -17 -9 -29 13 -78 25 -58 43
-69 67 -41 11 13 9 27 -11 85 -17 52 -27 68 -38 64 -11 -4 -12 -2 -4 8 8 10
-24 105 -128 382 -77 204 -140 376 -140 382 0 32 166 124 285 158 68 20 148
34 185 31 l25 -1 3 -532z m-384 -1046 c55 -35 101 -68 103 -73 4 -13 -288 -5
-304 8 -23 18 -14 68 18 113 37 51 23 55 183 -48z m1037 19 c22 -42 22 -45 6
-69 -17 -26 -19 -26 -158 -29 -78 -2 -145 0 -151 3 -9 6 28 31 205 140 49 31
60 26 98 -45z"/>
<path d="M4985 11693 c-90 -22 -168 -51 -285 -106 -67 -32 -192 -139 -263
-227 -16 -20 -45 -40 -70 -48 -149 -49 -310 -149 -430 -266 -181 -175 -185
-245 -28 -404 147 -149 311 -252 504 -316 59 -20 114 -36 122 -36 8 0 15 -4
15 -9 0 -20 106 -123 171 -166 76 -51 218 -108 258 -103 44 5 53 41 30 123
-10 38 -19 84 -19 101 0 30 1 31 73 44 186 32 406 128 559 242 49 38 91 68 93
68 2 0 17 -22 35 -50 62 -97 187 -193 322 -248 75 -30 111 -32 138 -7 32 29
25 66 -21 110 l-42 40 6 -42 c6 -54 -1 -54 -93 -9 -130 64 -216 139 -260 226
-21 42 -21 42 -2 64 11 11 25 32 32 45 10 20 9 26 -16 52 l-27 29 -18 -30
c-10 -16 -47 -57 -82 -92 -140 -138 -349 -251 -572 -309 -79 -21 -113 -24
-285 -24 -204 0 -234 4 -385 52 -176 56 -382 187 -504 319 -84 91 -87 117 -29
192 99 128 294 265 462 325 343 121 720 96 1041 -71 6 -3 -8 15 -30 39 -33 36
-29 34 20 -12 33 -30 93 -77 133 -104 134 -89 252 -214 252 -268 0 -7 13 -26
30 -42 l29 -28 11 29 c17 42 4 102 -33 156 -18 27 -35 48 -39 48 -24 0 21 100
69 155 40 46 141 119 201 146 35 16 66 29 68 29 9 0 3 -109 -10 -181 -19 -105
-59 -181 -123 -236 -29 -25 -53 -52 -53 -61 0 -8 24 -41 54 -72 70 -74 124
-181 143 -285 2 -11 24 -40 48 -65 53 -53 54 -50 26 86 -22 105 -85 245 -131
289 -17 16 -30 33 -30 37 0 5 13 23 30 41 77 83 118 204 127 383 l6 122 -26
17 c-25 16 -29 16 -79 0 -82 -27 -161 -70 -224 -122 -72 -58 -96 -84 -136
-150 -18 -29 -36 -53 -40 -53 -4 0 -22 13 -40 28 -127 110 -390 237 -552 267
l-36 7 0 77 c1 42 7 106 14 143 17 89 7 112 -49 115 -22 0 -49 -1 -60 -4z m31
-95 c-3 -13 -9 -67 -13 -120 l-6 -98 -102 7 c-62 3 -147 1 -214 -7 -61 -7
-114 -10 -118 -7 -13 14 111 118 186 156 78 40 201 82 265 90 4 1 5 -9 2 -21z
m-190 -1344 l80 -7 12 -70 c7 -38 10 -72 7 -75 -10 -10 -171 77 -215 117 l-45
40 40 1 c22 0 76 -3 121 -6z"/>
<path d="M1842 9045 c-233 -42 -421 -194 -469 -379 l-17 -64 -97 -4 c-81 -4
-107 -10 -160 -35 -95 -45 -220 -167 -202 -196 3 -6 2 -7 -4 -4 -16 10 -63
-110 -75 -191 -32 -205 86 -425 276 -517 40 -19 94 -38 120 -41 l46 -7 0 -281
c0 -162 4 -297 10 -318 6 -20 22 -46 37 -58 25 -20 37 -20 531 -20 l506 0 -29
30 -28 29 -464 3 c-533 3 -493 -5 -493 100 l0 58 397 0 397 0 -30 33 -29 32
35 -32 36 -33 242 0 242 0 0 -62 c0 -35 -4 -68 -8 -75 -5 -8 -60 -14 -160 -19
l-153 -7 27 -29 c28 -28 28 -28 155 -28 71 0 139 5 152 11 50 23 52 33 57 359
l5 304 55 11 c155 31 297 159 364 328 23 57 27 84 27 161 1 280 -202 496 -466
496 l-73 0 -7 36 c-8 45 -56 145 -91 191 -35 46 -127 118 -194 152 -142 73
-305 96 -468 66z m311 -80 c186 -49 338 -186 367 -333 21 -104 22 -105 88 -99
270 23 473 -177 460 -453 -3 -74 -9 -98 -37 -154 -18 -37 -56 -91 -84 -120
-113 -115 -271 -154 -429 -106 -74 23 -147 59 -168 85 -19 23 -43 18 -99 -19
-122 -83 -277 -107 -412 -66 -71 21 -88 29 -161 78 l-38 24 -63 -39 c-99 -62
-155 -78 -277 -78 -100 0 -109 2 -175 34 -209 103 -299 362 -201 576 72 158
199 235 391 238 l99 2 13 64 c17 82 47 142 103 204 76 85 206 154 333 177 68
12 217 4 290 -15z m267 -1306 c52 -24 144 -49 177 -49 l23 0 0 -194 0 -194
-642 1 -643 2 0 189 0 190 70 13 c40 7 106 30 153 54 l83 41 67 -35 c99 -52
162 -67 271 -67 107 0 186 22 283 78 l53 31 30 -20 c16 -11 50 -29 75 -40z"/>
<path d="M8855 9012 c-39 -9 -69 -38 -185 -176 -65 -78 -154 -182 -197 -232
-86 -100 -136 -162 -141 -176 -2 -5 -23 9 -46 30 -47 43 -136 90 -181 94 -16
2 -33 6 -36 10 -3 5 -32 11 -65 14 -113 11 -261 -40 -352 -121 l-47 -42 -100
-5 c-164 -9 -277 -61 -401 -184 -74 -73 -146 -195 -160 -270 -4 -24 -14 -38
-29 -44 -12 -5 -32 -21 -44 -36 -28 -35 -28 -128 -1 -240 85 -357 419 -606
875 -655 129 -14 366 -6 472 15 419 85 705 331 769 663 22 118 19 186 -11 221
-14 17 -38 33 -53 37 -21 4 -32 15 -42 43 -20 58 -78 142 -132 194 l-49 48 48
42 c26 24 127 119 225 211 196 186 213 212 185 279 -25 57 -62 83 -118 83 -40
0 -48 3 -43 15 26 58 3 140 -45 164 -34 17 -71 24 -96 18z m-703 -556 c71 -35
138 -88 138 -108 0 -18 -102 -8 -130 12 -93 66 -208 79 -314 35 -53 -21 -64
-23 -98 -12 -21 6 -38 15 -38 19 0 14 64 51 128 75 55 19 83 23 152 21 76 -3
94 -7 162 -42z m-420 -149 c36 -14 79 -34 95 -43 60 -38 143 -106 143 -116 0
-7 9 -21 19 -32 24 -25 91 -159 91 -181 0 -11 -11 -15 -40 -15 -29 0 -40 4
-40 15 0 39 -78 155 -145 218 -16 15 -64 44 -104 65 -75 37 -76 37 -200 37
-122 0 -128 -1 -195 -33 -39 -18 -90 -49 -114 -69 -45 -37 -117 -139 -141
-200 -12 -28 -18 -33 -47 -33 -40 0 -42 10 -17 72 62 158 217 291 388 335 78
20 226 10 307 -20z m682 -48 c59 -11 170 -59 225 -98 51 -36 171 -202 171
-236 0 -3 -17 -5 -38 -5 -33 0 -40 4 -57 36 -23 44 -95 117 -150 153 -22 14
-42 29 -45 33 -3 4 -39 16 -80 27 -104 29 -201 28 -297 -4 -80 -27 -78 -27
-103 16 -8 14 -2 20 28 35 103 49 228 65 346 43z m-724 -98 c79 -30 141 -80
189 -151 52 -79 52 -90 1 -90 -31 0 -42 5 -52 24 -25 47 -88 104 -145 133 -49
24 -70 28 -138 28 -72 -1 -87 -4 -144 -35 -58 -31 -141 -114 -141 -141 0 -5
-18 -9 -40 -9 -51 0 -52 14 -4 86 106 159 297 222 474 155z m677 -51 c74 -12
144 -41 186 -76 35 -29 87 -93 87 -105 0 -5 -17 -9 -37 -9 -28 0 -47 8 -73 31
-49 42 -137 86 -191 94 -42 6 -79 0 -184 -30 -16 -5 -23 1 -32 25 -14 37 -3
45 90 65 78 17 79 17 154 5z m-735 -95 c25 -9 63 -33 84 -53 l39 -37 -43 -3
c-29 -2 -58 4 -86 17 -53 26 -99 26 -155 1 -43 -20 -121 -27 -121 -12 0 16 56
61 100 81 54 25 120 27 182 6z m1279 -177 c20 -8 21 -13 16 -76 -34 -361 -298
-614 -726 -694 -162 -31 -400 -30 -556 0 -129 25 -244 65 -333 116 -35 20 -67
36 -70 36 -3 0 -15 -8 -26 -17 -21 -18 -21 -18 -2 4 19 23 19 23 -10 45 -54
40 -141 134 -177 190 -48 76 -87 187 -98 283 -10 89 -6 111 19 119 29 8 1940
2 1963 -6z"/>
<path d="M11232 8933 c-27 -27 -96 -104 -154 -173 -188 -221 -310 -363 -373
-435 -34 -38 -102 -118 -151 -176 -49 -58 -143 -168 -209 -244 -118 -135 -203
-236 -311 -364 -47 -57 -54 -70 -54 -109 0 -100 113 -172 200 -127 15 8 59 52
97 99 63 78 274 334 526 640 60 72 152 184 205 250 90 109 97 116 100 90 1
-16 7 -58 13 -93 30 -186 188 -336 380 -359 l52 -7 -169 -111 c-93 -61 -230
-151 -304 -200 -641 -417 -717 -470 -730 -509 -15 -45 -8 -85 22 -126 29 -40
67 -59 116 -59 30 0 55 11 113 51 41 29 124 86 184 127 61 41 141 105 180 141
38 36 52 46 30 22 -38 -42 -35 -40 70 32 61 42 153 105 205 141 52 36 131 90
175 121 44 30 110 76 148 102 37 25 67 50 67 54 0 5 4 8 8 6 13 -4 405 268
437 303 14 15 20 36 20 67 0 39 -5 49 -39 80 -35 32 -42 35 -86 31 l-47 -5 20
70 c18 61 19 79 10 153 -19 158 -107 279 -250 347 -65 31 -74 32 -189 32
l-121 0 9 28 c25 72 -37 157 -114 157 -31 0 -46 -8 -86 -47z m116 -39 c12 -8
22 -23 22 -33 0 -10 -75 -109 -167 -220 -93 -112 -204 -247 -248 -301 -44 -54
-176 -214 -293 -356 -118 -143 -280 -339 -360 -437 -91 -110 -156 -180 -170
-184 -31 -7 -76 26 -80 59 -2 16 7 37 25 59 29 36 428 502 474 554 15 17 154
179 309 360 406 474 442 515 457 515 5 0 19 -7 31 -16z m335 -185 c175 -67
276 -276 218 -450 -108 -324 -539 -350 -684 -41 -89 189 9 421 206 492 73 27
189 26 260 -1z m367 -594 c19 -23 3 -51 -53 -92 -29 -21 -61 -46 -71 -55 -11
-10 -23 -18 -28 -18 -4 0 -27 -14 -50 -30 -24 -17 -65 -46 -93 -64 -27 -19
-93 -64 -145 -100 -52 -37 -135 -94 -185 -128 -167 -113 -190 -131 -270 -207
-64 -61 -69 -64 -25 -17 l55 59 -62 -44 c-34 -24 -98 -69 -143 -99 -44 -30
-171 -117 -280 -193 -225 -156 -240 -161 -275 -94 l-20 38 36 32 c20 18 123
89 230 158 419 273 842 551 849 559 12 12 72 52 117 76 26 15 57 35 69 45 11
11 23 19 27 19 3 0 26 14 49 30 46 33 60 42 152 102 62 40 96 47 116 23z"/>
<path d="M11481 8584 c-62 -22 -99 -52 -129 -104 -36 -60 -38 -167 -5 -220 50
-81 117 -120 205 -120 67 0 123 26 169 77 46 51 63 100 57 169 -12 145 -163
246 -297 198z"/>
<path d="M4886 8839 c-57 -14 -138 -63 -182 -112 l-38 -42 -91 0 c-80 0 -97
-4 -157 -32 -112 -53 -193 -154 -213 -266 -6 -32 -13 -40 -51 -56 -62 -28
-139 -104 -171 -170 -25 -50 -28 -67 -29 -166 0 -93 -5 -122 -28 -190 l-28
-80 12 -145 c26 -313 119 -477 277 -488 66 -5 47 -11 568 198 182 73 409 163
505 202 96 38 177 74 178 79 2 5 7 7 12 4 8 -5 503 189 569 223 72 37 119 132
106 213 -7 43 -64 135 -120 197 -31 35 -36 48 -40 101 -8 103 -66 190 -157
235 -29 14 -62 26 -75 26 -16 0 -30 13 -48 45 -37 63 -116 130 -181 154 -59
23 -156 28 -212 11 -41 -11 -115 1 -137 24 -9 9 -28 19 -43 22 -15 3 -43 10
-62 15 -43 11 -112 10 -164 -2z m158 -72 c17 -13 16 -15 -20 -29 -54 -22 -148
-110 -173 -162 -21 -45 -57 -78 -101 -91 -14 -4 -40 -16 -58 -27 -32 -19 -34
-19 -70 -2 -57 27 -183 30 -254 6 -70 -24 -76 -12 -22 48 69 76 184 112 290
90 59 -12 59 -12 79 16 66 91 129 136 217 153 65 13 92 12 112 -2z m437 -72
c58 -21 116 -77 144 -141 23 -50 24 -51 75 -57 80 -10 154 -67 175 -136 7 -22
0 -19 -61 24 -67 47 -212 125 -232 125 -5 0 -22 24 -37 53 -15 28 -48 73 -73
100 -25 26 -44 47 -40 47 3 0 25 -7 49 -15z m-6 -235 c196 -63 368 -176 480
-315 67 -83 86 -115 92 -149 6 -40 -18 -99 -49 -120 -20 -13 -287 -122 -733
-297 -82 -33 -170 -68 -195 -79 -25 -10 -178 -71 -340 -135 -162 -65 -334
-133 -383 -152 -48 -19 -93 -33 -101 -30 -7 3 -16 16 -19 29 -2 13 -12 57 -21
98 -24 106 -22 289 4 407 22 99 27 116 66 201 14 31 30 66 35 77 21 48 106
154 183 229 91 88 267 202 338 218 22 5 49 13 60 19 50 27 156 38 318 35 154
-3 172 -5 265 -36z m-1369 -275 c-27 -71 -12 -196 34 -282 27 -51 27 -54 13
-95 -21 -60 -42 -183 -43 -245 0 -60 -8 -64 -56 -28 -89 68 -98 215 -19 301
29 31 30 39 10 87 -26 62 -20 145 16 215 17 34 35 62 41 62 6 0 8 -7 4 -15z
m8 -825 c4 -30 14 -81 22 -114 8 -32 13 -60 11 -63 -3 -2 -19 8 -36 23 -38 32
-74 102 -91 176 -6 29 -14 60 -16 69 -4 13 6 11 49 -10 54 -26 54 -26 61 -81z"/>
<path d="M7845 6134 c-258 -25 -412 -55 -576 -113 -209 -74 -271 -119 -284
-204 -8 -49 8 -119 30 -137 8 -7 15 -16 15 -21 0 -5 18 -38 40 -73 21 -36 51
-86 64 -113 14 -26 37 -66 51 -88 13 -22 32 -53 41 -70 9 -16 82 -140 162
-275 79 -135 197 -333 260 -440 295 -499 293 -496 337 -510 65 -21 89 0 182
160 79 135 102 183 96 194 -4 5 -1 6 5 2 6 -3 34 35 69 93 32 55 78 135 103
177 25 42 50 84 55 93 45 73 103 170 113 191 6 14 44 77 83 140 71 115 249
419 249 426 0 2 19 34 42 71 34 56 42 79 46 128 3 54 1 64 -27 102 -34 47 -66
66 -220 128 -131 52 -319 102 -459 121 -107 14 -402 25 -477 18z m470 -99
c143 -21 222 -41 358 -86 175 -58 255 -101 273 -146 15 -35 14 -38 -16 -97
-56 -110 -45 -106 -161 -52 -121 57 -244 97 -399 128 -103 21 -143 23 -380 23
-233 0 -278 -3 -375 -22 -111 -22 -271 -66 -282 -77 -4 -3 4 -18 18 -34 l24
-27 -31 28 -32 29 -77 -36 c-43 -20 -83 -36 -89 -36 -6 0 -28 29 -48 63 -70
118 -48 158 125 225 171 67 367 112 592 136 80 8 402 -4 500 -19z m-87 -316
c111 -12 264 -47 367 -83 62 -21 224 -92 234 -101 4 -5 -57 -112 -200 -352
-60 -100 -109 -186 -109 -191 0 -5 -15 -32 -34 -59 -18 -27 -43 -67 -55 -88
-12 -22 -39 -68 -61 -102 -21 -33 -56 -92 -76 -130 -21 -37 -56 -97 -78 -133
-23 -36 -48 -77 -56 -92 -42 -76 -133 -219 -143 -225 -10 -6 -57 43 -57 60 0
4 -17 34 -38 65 -21 32 -41 65 -45 75 -3 9 -60 106 -125 214 -65 109 -128 213
-138 232 -10 18 -24 41 -29 50 -6 9 -23 39 -40 66 -16 28 -88 149 -160 270
-171 286 -195 329 -195 347 0 16 82 56 209 100 91 31 242 65 350 78 101 12
371 11 479 -1z"/>
<path d="M7559 5595 c-66 -34 -76 -50 -53 -78 l19 -22 -23 20 c-25 21 -25 22
-60 -40 -12 -22 -17 -54 -17 -120 0 -85 2 -93 33 -142 53 -82 125 -123 215
-123 91 1 180 59 222 146 23 48 31 145 16 201 -40 147 -219 227 -352 158z"/>
<path d="M8265 5606 c-157 -69 -210 -273 -107 -411 116 -155 332 -135 425 40
29 53 31 182 4 237 -26 51 -83 107 -131 129 -48 22 -147 25 -191 5z"/>
<path d="M7926 5015 c-56 -20 -105 -63 -139 -124 -26 -45 -30 -64 -31 -125 0
-114 55 -206 149 -247 75 -33 174 -24 241 22 54 37 104 124 111 194 20 188
-161 341 -331 280z"/>
<path d="M10970 6104 c-366 -45 -659 -247 -815 -562 -65 -132 -87 -229 -92
-403 -5 -145 -3 -165 21 -262 49 -194 139 -350 277 -482 138 -131 264 -202
449 -253 131 -35 342 -37 470 -3 147 39 321 123 395 192 11 10 39 34 62 54 45
39 149 170 155 195 2 8 10 22 19 32 25 28 88 182 110 266 84 324 -22 693 -268
935 -138 136 -284 218 -465 262 -100 24 -247 38 -318 29z m217 -144 c88 -22
203 -76 278 -129 61 -43 186 -169 206 -208 7 -15 16 -30 19 -33 11 -11 61
-119 85 -185 42 -112 52 -267 28 -415 l-5 -35 73 71 c84 80 109 95 109 62 0
-14 -42 -64 -118 -142 -83 -85 -120 -130 -125 -152 -3 -17 -27 -62 -52 -99
-45 -68 -45 -69 -32 -104 13 -31 13 -44 0 -91 -7 -30 -11 -66 -8 -79 6 -24 -7
-41 -31 -41 -19 0 -25 61 -13 116 7 29 9 60 5 69 -5 14 -13 10 -47 -25 -70
-72 -198 -153 -291 -184 -206 -69 -371 -71 -561 -7 -213 72 -399 232 -479 411
-16 36 -36 77 -44 91 -18 35 -41 145 -49 239 -19 218 87 491 254 656 94 92
259 200 299 195 12 -1 22 3 22 9 0 6 3 9 8 7 4 -3 43 3 87 14 100 22 267 18
382 -11z"/>
<path d="M10958 5480 c-133 -23 -246 -134 -272 -268 -14 -67 -2 -198 20 -219
8 -8 14 -20 14 -26 0 -7 21 -36 48 -64 33 -38 67 -62 117 -84 62 -28 81 -32
160 -32 69 0 101 4 136 20 186 83 252 316 143 500 -33 55 -65 89 -133 141 -43
32 -39 16 5 -25 20 -18 33 -33 29 -33 -4 0 -30 20 -56 45 -27 26 -58 45 -71
45 -13 1 -39 2 -58 4 -19 2 -56 0 -82 -4z m183 -135 c118 -42 189 -180 155
-298 -34 -117 -132 -193 -246 -191 -218 4 -331 269 -182 428 64 68 179 94 273
61z"/>
<path d="M2095 6084 c-69 -18 -127 -41 -176 -70 -71 -43 -787 -755 -839 -836
-20 -31 -47 -88 -60 -127 -31 -98 -26 -255 12 -349 22 -54 24 -68 16 -105 -15
-66 -2 -179 27 -237 34 -68 95 -126 164 -159 48 -22 69 -26 141 -25 47 1 99 2
115 4 17 1 63 -10 104 -25 139 -50 328 -27 451 55 25 16 217 201 427 411 350
349 386 389 422 458 21 42 45 104 52 139 17 91 6 215 -26 297 -25 60 -26 69
-15 121 33 156 -49 312 -199 383 -46 21 -70 26 -137 26 -45 0 -87 -5 -95 -11
-11 -9 -31 -5 -89 19 -63 25 -91 31 -175 33 -55 2 -109 1 -120 -2z m228 -86
c20 -6 37 -12 37 -12 0 -1 -275 -277 -610 -614 -336 -337 -610 -616 -610 -620
0 -4 -9 -13 -19 -19 -18 -11 -21 -8 -35 41 -31 105 -12 243 46 345 39 68 713
751 801 812 119 82 257 106 390 67z m355 -54 c24 -14 29 -21 20 -31 -8 -10 -6
-13 8 -13 15 0 16 -2 5 -9 -10 -7 -8 -12 10 -25 13 -9 19 -16 15 -16 -5 0 -17
6 -25 14 -21 18 -77 36 -112 36 -45 0 -137 -40 -182 -80 -52 -46 -85 -109 -99
-192 -6 -35 -17 -69 -24 -77 -7 -8 -40 -18 -73 -22 -154 -18 -248 -120 -276
-300 -7 -48 -20 -58 -96 -70 -77 -12 -114 -29 -168 -76 -51 -44 -90 -118 -98
-186 -9 -81 -20 -93 -103 -105 -51 -7 -84 -19 -112 -39 -23 -15 -48 -32 -58
-37 -26 -14 -58 -66 -80 -129 -24 -67 -25 -112 -5 -151 20 -38 19 -44 -8 -48
-15 -2 -22 -10 -21 -25 0 -12 -4 -19 -9 -16 -5 3 -7 14 -4 24 5 17 -4 24 -26
20 -15 -2 -36 67 -38 125 -4 109 -10 102 671 780 340 339 629 624 641 632 64
45 185 53 247 16z m-12 -139 c21 -33 6 -72 -31 -80 -14 -3 -36 -7 -49 -10 -13
-3 -37 -17 -54 -33 -24 -23 -31 -40 -37 -88 -9 -76 -28 -121 -68 -162 -42 -44
-96 -71 -154 -78 -103 -12 -134 -44 -152 -151 -21 -130 -92 -199 -226 -218
-88 -12 -135 -56 -135 -125 0 -50 -38 -134 -77 -172 -46 -45 -89 -63 -167 -73
-48 -5 -65 -13 -87 -36 -15 -16 -30 -44 -34 -62 -12 -60 -17 -68 -42 -78 -40
-15 -73 12 -73 60 0 122 88 213 227 232 59 8 72 14 101 44 23 25 32 44 32 68
0 67 30 140 75 183 43 42 116 74 167 74 70 0 115 46 129 131 13 82 42 141 86
178 39 32 119 61 168 61 63 0 108 56 118 149 14 119 108 208 224 210 35 1 46
-4 59 -24z m204 -376 c8 -31 11 -86 8 -139 -5 -74 -11 -99 -41 -161 -34 -69
-60 -98 -429 -465 -351 -348 -399 -393 -453 -417 -84 -36 -179 -50 -259 -37
-57 9 -96 19 -96 24 0 5 1246 1246 1252 1246 3 0 12 -23 18 -51z"/>
<path d="M4753 5950 c-370 -36 -629 -203 -742 -478 -57 -138 -70 -282 -24
-282 11 0 13 -7 8 -30 -8 -36 9 -91 35 -115 29 -26 28 -125 -1 -165 -19 -25
-21 -38 -16 -96 4 -57 2 -70 -15 -88 -40 -43 3 -189 81 -277 56 -63 115 -97
221 -131 l75 -23 640 0 c639 0 640 0 720 23 103 30 174 71 225 130 71 84 106
246 60 287 -15 13 -17 22 -10 36 15 27 12 100 -5 133 -24 45 -20 151 7 188 15
21 21 45 20 76 0 35 5 50 19 60 39 27 13 177 -56 318 -34 71 -63 111 -124 176
-73 77 -80 82 -97 68 -17 -14 -18 -14 -6 2 12 15 8 20 -35 47 -80 51 -191 92
-313 118 -96 20 -152 24 -345 28 -126 2 -271 0 -322 -5z m477 -80 c173 -11
307 -46 427 -110 159 -84 278 -237 319 -407 7 -32 13 -66 14 -75 0 -17 -53
-18 -975 -18 l-975 0 0 28 c0 16 7 53 16 83 63 223 229 383 475 457 150 46
405 61 699 42z m678 -896 l3 -41 -73 -7 c-154 -15 -271 -54 -401 -133 -56 -34
-62 -35 -91 -24 -17 7 -71 26 -121 43 -49 17 -107 39 -127 49 -21 11 -75 29
-120 41 -85 22 -175 25 -705 27 l-153 1 0 38 c0 21 3 42 7 46 4 3 405 5 892 4
l886 -3 3 -41z m49 -373 c-15 -116 -116 -209 -262 -242 -67 -16 -1168 -24
-1294 -10 -141 16 -241 72 -297 168 -27 45 -46 108 -36 117 3 4 430 6 950 6
l945 0 -6 -39z"/>
<path d="M11136 3698 c-3 -13 -7 -42 -9 -65 -7 -58 -53 -119 -156 -205 -130
-108 -169 -164 -197 -285 -18 -78 -15 -213 6 -238 7 -9 23 -15 34 -13 20 3 21
11 27 123 4 86 11 134 25 168 24 58 77 126 121 157 18 12 66 56 107 97 80 80
116 148 116 218 0 51 -9 65 -41 65 -22 0 -30 -5 -33 -22z"/>
<path d="M11242 3384 c-12 -8 -22 -22 -22 -30 0 -8 -38 -53 -84 -100 -47 -48
-92 -101 -100 -119 -43 -90 -59 -230 -30 -259 34 -35 64 -4 64 68 0 100 23
149 114 245 112 116 141 177 98 200 -14 7 -25 6 -40 -5z"/>
<path d="M7848 3340 c-154 -38 -283 -125 -377 -255 -44 -59 -85 -151 -101
-220 -14 -61 -14 -208 -1 -252 8 -28 6 -37 -20 -69 -48 -61 -62 -144 -34 -210
34 -83 83 -122 196 -157 10 -3 41 -80 88 -213 40 -115 83 -238 96 -274 51
-139 165 -469 165 -475 0 -16 44 -66 70 -80 65 -34 141 -22 189 29 12 13 41
79 65 147 24 68 100 284 169 479 151 429 136 390 156 390 28 0 115 46 143 76
72 77 78 215 12 293 -24 29 -25 32 -13 93 45 249 -102 524 -345 643 -152 75
-303 93 -458 55z m344 -86 c227 -71 388 -287 388 -522 0 -38 -7 -92 -16 -120
l-17 -51 41 -47 c47 -52 59 -96 42 -148 -14 -44 -81 -106 -118 -107 -74 -4
-108 4 -144 32 -20 16 -42 29 -48 29 -5 0 -28 -13 -50 -29 -70 -51 -155 -49
-218 4 -37 31 -52 31 -88 0 -62 -54 -160 -56 -219 -4 -41 36 -53 36 -99 0 -62
-49 -147 -49 -210 0 -75 59 -75 179 -1 237 29 23 31 41 10 97 -49 137 16 354
145 485 161 163 376 214 602 144z m-339 -1074 c45 0 75 6 107 23 l45 22 54
-24 c72 -32 143 -33 209 -2 49 23 50 23 91 5 23 -10 41 -23 41 -30 0 -7 -39
-122 -86 -256 -74 -210 -199 -568 -237 -678 -10 -28 -19 -36 -50 -43 -64 -15
-80 5 -142 183 -29 85 -76 220 -104 300 -29 80 -63 179 -78 220 -14 41 -41
117 -59 169 -19 51 -34 99 -34 105 0 6 19 21 43 32 l42 20 47 -23 c34 -17 65
-23 111 -23z"/>
<path d="M4915 3246 c-84 -39 -125 -98 -140 -198 -4 -29 -12 -48 -20 -48 -36
0 -184 -88 -238 -141 -56 -57 -117 -162 -117 -204 0 -30 -12 -43 -45 -50 -43
-10 -110 -50 -145 -88 -136 -141 -110 -384 50 -488 56 -36 45 -2 124 -396 46
-229 66 -286 112 -322 49 -39 86 -41 546 -39 426 3 444 4 478 24 58 34 74 78
130 364 29 146 54 272 55 280 4 38 19 61 50 80 149 92 198 297 105 443 -37 58
-120 124 -175 138 -41 10 -43 12 -54 65 -30 131 -192 291 -338 335 -38 11 -43
16 -43 42 0 122 -115 228 -244 226 -23 0 -63 -11 -91 -23z m278 -300 c101 -20
181 -62 256 -136 68 -67 107 -137 117 -213 7 -53 13 -59 63 -64 51 -6 122 -48
154 -93 82 -116 46 -289 -75 -356 l-53 -29 -619 -3 c-692 -3 -691 -3 -761 65
-51 49 -68 89 -72 168 -3 61 0 77 24 125 34 68 91 109 170 125 l57 11 12 61
c36 175 173 296 383 338 89 18 253 18 344 1z m432 -1025 c-2 -28 -5 -53 -8
-58 -3 -4 -26 -108 -51 -231 -25 -122 -50 -232 -56 -242 -22 -41 -37 -42 -497
-42 l-444 0 -29 27 c-22 21 -34 47 -49 114 -26 112 -78 373 -87 434 l-6 47
614 0 615 0 -2 -49z"/>
<path d="M2380 3211 c-102 -32 -150 -68 -150 -111 0 -14 16 -52 35 -84 19 -32
35 -60 35 -62 0 -2 -276 -5 -614 -6 -588 -3 -615 -4 -635 -22 -12 -11 -26 -35
-32 -55 -9 -31 -7 -44 14 -91 105 -235 387 -586 600 -744 l77 -58 0 -146 0
-145 28 24 27 24 -27 -31 c-26 -28 -28 -36 -28 -120 0 -107 3 -103 -121 -162
-130 -62 -169 -123 -114 -177 l24 -25 359 0 c347 0 359 1 380 20 24 22 29 68
12 100 -11 21 -98 74 -170 104 -82 35 -80 28 -80 289 l0 231 -35 -34 -35 -34
0 -204 c0 -131 4 -211 11 -225 20 -39 51 -66 88 -78 44 -14 161 -80 161 -91 0
-4 -151 -8 -336 -8 -387 0 -382 -2 -209 82 72 34 106 56 118 77 15 26 17 62
17 299 l0 270 -53 35 c-193 129 -435 405 -581 665 -39 70 -56 111 -54 130 l3
27 759 0 c881 0 805 11 742 -107 -145 -271 -373 -542 -589 -698 l-76 -55 -1
-55 0 -54 60 59 c33 33 60 56 60 51 0 -13 87 60 188 158 92 89 220 236 207
236 -4 0 9 18 28 39 20 22 43 51 52 65 10 14 23 26 29 26 21 0 57 46 51 63 -4
9 15 55 44 111 54 99 61 137 37 184 -22 43 -51 52 -180 54 l-119 3 -44 70
c-39 64 -42 71 -27 82 19 14 85 39 128 48 28 6 28 6 10 28 l-19 22 25 -21 c15
-13 53 -26 96 -33 141 -24 258 -124 295 -252 7 -24 14 -46 16 -48 2 -3 16 8
32 23 l30 29 -20 51 c-81 205 -324 323 -529 257z"/>
<path d="M2897 2862 c-33 -35 -35 -77 -4 -111 19 -22 19 -23 1 -8 -20 17 -21
16 -32 -32 -14 -61 -45 -128 -75 -161 -28 -31 -86 -80 -95 -80 -4 0 -22 25
-41 56 l-33 56 -26 -25 -26 -26 20 -37 c31 -59 68 -94 101 -94 37 0 113 50
152 98 62 79 108 190 88 212 -9 10 -9 11 1 6 9 -6 12 13 12 78 0 47 -4 87 -8
90 -5 3 -21 -7 -35 -22z"/>
<path d="M10705 2740 c-146 -11 -386 -50 -378 -63 3 -6 1 -7 -6 -3 -19 12
-201 -50 -271 -92 -43 -26 -76 -55 -97 -87 -32 -46 -33 -51 -33 -147 0 -350
127 -691 326 -877 87 -82 151 -124 257 -167 111 -45 194 -62 337 -70 324 -18
605 80 781 275 41 44 51 51 85 51 166 1 351 112 427 258 122 232 22 492 -198
514 -29 3 -30 4 -36 69 -4 45 -12 76 -28 97 -119 168 -652 279 -1166 242z
m398 -80 c475 -30 819 -183 690 -305 -120 -113 -464 -195 -815 -195 l-132 0
35 -37 34 -38 -40 38 c-38 35 -45 37 -105 37 -221 1 -549 72 -675 146 -121 71
-127 131 -22 198 64 40 139 70 234 94 61 15 71 21 60 32 -10 12 -9 12 5 2 13
-10 34 -10 110 3 178 31 389 40 621 25z m-988 -453 c75 -37 246 -81 400 -104
184 -27 631 -25 815 4 204 33 368 85 463 147 27 18 27 18 27 -5 0 -120 -66
-371 -130 -499 -35 -70 -143 -220 -158 -220 -4 0 -23 -16 -43 -35 -119 -112
-347 -185 -579 -185 -227 0 -423 61 -564 175 -170 139 -289 374 -331 655 -8
52 -15 103 -15 114 0 18 1 18 28 0 15 -10 54 -31 87 -47z m1851 38 c92 -27
137 -101 137 -225 -1 -178 -109 -307 -302 -364 -30 -9 -60 -16 -67 -16 -7 0 1
24 20 59 25 49 37 61 67 70 99 30 183 141 184 242 0 65 -18 97 -73 134 -35 23
-37 27 -34 70 2 25 7 45 11 45 4 0 30 -7 57 -15z"/>
<path d="M10615 2589 c-269 -28 -441 -81 -465 -144 -30 -80 101 -141 390 -181
175 -25 567 -25 740 -1 228 32 370 81 391 133 35 93 -130 159 -480 194 -119
12 -459 11 -576 -1z m-1 -71 c156 16 454 15 616 -3 128 -14 311 -54 354 -77
19 -10 19 -11 0 -25 -10 -8 -48 -23 -84 -34 -65 -19 -66 -19 -223 1 -160 20
-505 28 -611 14 l-48 -7 69 -71 68 -71 -76 73 -75 73 -102 -16 c-82 -12 -112
-13 -150 -3 -69 17 -134 46 -127 58 7 11 113 43 202 61 l63 13 -28 30 -27 31
32 -29 33 -30 114 12z"/>
<path d="M1983 2632 c-209 -1 -353 -6 -353 -12 0 -15 52 -154 62 -167 6 -7 8
-13 5 -13 -3 0 5 -24 18 -52 30 -64 33 -91 8 -62 -34 37 -83 103 -83 109 0 4
-13 24 -30 45 -16 21 -30 42 -30 47 0 6 -12 23 -27 39 -15 16 -26 30 -24 32 1
1 -2 9 -7 18 -6 12 -24 14 -81 12 l-73 -3 63 -85 c91 -121 273 -301 331 -328
102 -47 189 -22 310 88 100 91 290 324 270 332 -4 2 -166 2 -359 0z"/>
</g>
</svg>
