<?xml version="1.0" standalone="no"?>
<!DOCTYPE svg PUBLIC "-//W3C//DTD SVG 20010904//EN"
 "http://www.w3.org/TR/2001/REC-SVG-20010904/DTD/svg10.dtd">
<svg version="1.0" xmlns="http://www.w3.org/2000/svg"
 width="795.000000pt" height="795.000000pt" viewBox="0 0 795.000000 795.000000"
 preserveAspectRatio="xMidYMid meet">
<metadata>
Created by potrace 1.16, written by Peter Selinger 2001-2019
</metadata>
<g transform="translate(0.000000,795.000000) scale(0.100000,-0.100000)"
fill="#000000" stroke="none">
<path d="M2975 7616 c-40 -18 -59 -41 -89 -108 -67 -152 -104 -391 -131 -857
-18 -315 -22 -2105 -5 -2330 11 -135 40 -294 81 -431 63 -214 22 -1131 -87
-1965 -80 -608 -95 -745 -101 -895 -7 -192 6 -334 43 -477 30 -116 57 -167
120 -222 138 -122 387 -84 479 73 35 60 62 177 76 332 16 172 5 336 -61 869
-86 708 -116 1109 -127 1730 -7 422 -14 389 136 706 100 214 166 404 197 567
25 134 29 496 10 892 -47 946 -159 1638 -315 1948 -34 67 -112 158 -144 167
-47 14 -53 14 -82 1z"/>
<path d="M4396 7008 c-29 -139 -36 -184 -56 -368 -46 -433 -65 -784 -65 -1230
0 -507 4 -518 245 -805 92 -110 134 -181 156 -266 15 -56 16 -106 10 -409 -8
-476 -27 -830 -66 -1240 -32 -329 -37 -381 -70 -655 -81 -682 -96 -962 -66
-1225 31 -262 59 -368 119 -443 86 -106 226 -141 348 -85 128 58 178 139 217
351 25 135 26 158 26 452 -1 276 -4 343 -33 610 -124 1166 -150 1529 -158
2197 l-6 446 30 64 c17 37 71 113 130 183 112 136 146 188 190 295 44 107 53
166 60 425 12 449 -53 1400 -118 1723 -11 53 -23 66 -33 35 -9 -30 -25 -295
-36 -593 -21 -565 -40 -814 -72 -917 -14 -49 -43 -44 -56 10 -29 110 -38 262
-62 1027 -11 325 -21 474 -34 487 -28 28 -41 -102 -56 -582 -23 -717 -50 -965
-107 -973 -19 -3 -24 5 -38 50 -29 100 -35 204 -45 738 -12 674 -17 770 -40
770 -23 0 -37 -144 -60 -610 -28 -579 -46 -789 -76 -897 -24 -87 -57 -65 -75
48 -20 127 -29 324 -39 848 -5 299 -13 559 -16 578 -11 56 -31 39 -48 -39z"/>
</g>
</svg>
