<svg width="15" height="16" viewBox="0 0 15 16" fill="none" xmlns="http://www.w3.org/2000/svg">
<path fill-rule="evenodd" clip-rule="evenodd" d="M7.5 0C3.35625 0 0 3.41526 0 7.63186C0 11.009 2.14687 13.8614 5.12812 14.8726C5.50312 14.9394 5.64375 14.7104 5.64375 14.5101C5.64375 14.3288 5.63438 13.7278 5.63438 13.0886C3.75 13.4416 3.2625 12.6212 3.1125 12.1919C3.02813 11.9725 2.6625 11.2952 2.34375 11.1139C2.08125 10.9708 1.70625 10.6178 2.33437 10.6083C2.925 10.5987 3.34687 11.1616 3.4875 11.3906C4.1625 12.5449 5.24063 12.2205 5.67188 12.0202C5.7375 11.5241 5.93437 11.1902 6.15 10.9994C4.48125 10.8086 2.7375 10.1504 2.7375 7.23119C2.7375 6.40122 3.02813 5.71436 3.50625 5.18013C3.43125 4.98933 3.16875 4.20706 3.58125 3.15768C3.58125 3.15768 4.20937 2.95735 5.64375 3.93995C6.24375 3.76823 6.88125 3.68237 7.51875 3.68237C8.15625 3.68237 8.79375 3.76823 9.39375 3.93995C10.8281 2.94781 11.4563 3.15768 11.4563 3.15768C11.8688 4.20706 11.6062 4.98933 11.5312 5.18013C12.0094 5.71436 12.3 6.39168 12.3 7.23119C12.3 10.1599 10.5469 10.8086 8.87813 10.9994C9.15 11.2379 9.38438 11.6958 9.38438 12.4113C9.38438 13.4321 9.375 14.2525 9.375 14.5101C9.375 14.7104 9.51562 14.9489 9.89062 14.8726C12.8531 13.8614 15 10.9994 15 7.63186C15 3.41526 11.6438 0 7.5 0Z" fill="#1B1F23"/>
</svg>
