<svg width="69" height="69" viewBox="0 0 69 69" fill="none" xmlns="http://www.w3.org/2000/svg">
<path d="M55.9138 45.9827H58.2931C60.9211 45.9827 63.0517 43.3194 63.0517 40.0345C63.0517 36.7495 60.9211 34.0862 58.2931 34.0862H55.9138V45.9827Z" fill="#A47054"/>
<path d="M13.0862 45.9827H10.7069C8.07899 45.9827 5.9483 43.3194 5.9483 40.0345C5.9483 36.7495 8.07899 34.0862 10.7069 34.0862H13.0862V45.9827Z" fill="#A47054"/>
<path d="M10.7069 26H58.2931V45.0345C58.2931 58.1753 47.6408 68.8276 34.5 68.8276C21.3592 68.8276 10.7069 58.1753 10.7069 45.0345V26Z" fill="#D99274"/>
<path d="M58.2931 25.7586C58.2931 23.1307 47.6408 21 34.5 21C21.3592 21 10.7069 23.1307 10.7069 25.7586C10.7069 28.3866 21.3592 30.5172 34.5 30.5172C47.6408 30.5172 58.2931 28.3866 58.2931 25.7586Z" fill="#9D5E42"/>
<path d="M32.1206 53.5346C31.7547 53.5346 31.4084 53.3656 31.1831 53.0775C30.9577 52.7888 30.8781 52.4124 30.9664 52.0569L33.3457 42.5396C33.441 42.1191 33.7558 41.7822 34.17 41.6602C34.5842 41.5376 35.0314 41.6497 35.3399 41.9518C35.6478 42.2538 35.768 42.6994 35.6541 43.1159L33.7564 50.7104L36.59 49.9965C37.2254 49.8425 37.8662 50.2294 38.0247 50.8637C38.1839 51.4975 37.8011 52.1411 37.1685 52.3043L32.4099 53.494C32.3152 53.5195 32.2182 53.5329 32.1206 53.5346Z" fill="#794D3A"/>
<path d="M23.7931 46.3966C19.3464 46.3966 17.9389 40.9682 17.8802 40.7364C17.7205 40.0986 18.1074 39.4527 18.7446 39.2923C19.3818 39.1326 20.0284 39.5195 20.1887 40.1567C20.198 40.195 21.2046 44.0173 23.7931 44.0173C26.3815 44.0173 27.3882 40.195 27.3975 40.1567C27.5578 39.5195 28.2043 39.1326 28.8416 39.2923C29.4788 39.4527 29.8657 40.0986 29.7059 40.7364C29.6473 40.9682 28.2398 46.3966 23.7931 46.3966Z" fill="#794D3A"/>
<path d="M45.2069 46.2242C40.7602 46.2242 39.3527 40.7958 39.2941 40.5641C39.1343 39.9263 39.5212 39.2803 40.1584 39.12C40.7956 38.9602 41.4422 39.3471 41.6025 39.9843C41.6118 40.0227 42.6185 43.8449 45.2069 43.8449C47.7953 43.8449 48.802 40.0227 48.8113 39.9843C48.9716 39.3471 49.6181 38.9602 50.2554 39.12C50.8926 39.2803 51.2795 39.9263 51.1197 40.5641C51.0611 40.7958 49.6536 46.2242 45.2069 46.2242Z" fill="#794D3A"/>
<path d="M23.7931 52.3448C23.7931 54.3158 22.1951 55.9138 20.2241 55.9138C18.2532 55.9138 16.6552 54.3158 16.6552 52.3448C16.6552 50.3739 18.2532 48.7759 20.2241 48.7759C22.1951 48.7759 23.7931 50.3739 23.7931 52.3448Z" fill="#FEA795"/>
<path d="M52.3448 52.3448C52.3448 54.3158 50.7468 55.9138 48.7759 55.9138C46.8049 55.9138 45.2069 54.3158 45.2069 52.3448C45.2069 50.3739 46.8049 48.7759 48.7759 48.7759C50.7468 48.7759 52.3448 50.3739 52.3448 52.3448Z" fill="#FEA795"/>
<path d="M34.5 7.85184C34.5 3.51552 31.3045 0 27.3621 0C23.4196 0 20.2241 3.51552 20.2241 7.85184C20.2241 12.1882 30.5575 26.1724 34.5 26.1724C38.4425 26.1724 48.7758 12.1882 48.7758 7.85184C48.7758 3.51552 45.5804 0 41.6379 0C37.6954 0 34.5 3.51552 34.5 7.85184Z" fill="#DC2027"/>
<path d="M45.2069 9.51733C44.5499 9.51733 44.0172 8.98465 44.0172 8.32767C44.0172 6.35672 42.4192 4.7587 40.4483 4.7587C39.7913 4.7587 39.2586 4.22603 39.2586 3.56905C39.2586 2.91207 39.7913 2.37939 40.4483 2.37939C43.732 2.38346 46.3925 5.04392 46.3965 8.32767C46.3965 8.98465 45.8639 9.51733 45.2069 9.51733Z" fill="#FFE1E1"/>
</svg>
