<svg width="105" height="106" viewBox="0 0 105 106" fill="none" xmlns="http://www.w3.org/2000/svg">
<g clip-path="url(#clip0)">
<path d="M45.4323 13.0796L98.8802 32.7512L97.0885 37.6194L43.6405 17.9478L45.4323 13.0796Z" fill="#E74444" fill-opacity="0.75"/>
<path d="M43.6405 17.948L97.0885 37.6196L95.2967 42.4878L41.8487 22.8162L43.6405 17.948Z" fill="#CE3536" fill-opacity="0.75"/>
<path d="M55.8299 14.1426C56.4599 14.3745 56.9698 14.8533 57.2472 15.4738C57.5247 16.0942 57.5471 16.8054 57.3095 17.451L42.9754 56.3969L38.2245 54.6483L52.5586 15.7024C52.7962 15.0569 53.2743 14.5298 53.8878 14.2373C54.5013 13.9448 55.1999 13.9107 55.8299 14.1426Z" fill="#FDD14B" fill-opacity="0.75"/>
<path d="M55.5177 22.3193L60.2686 24.0679L45.9345 63.0138L41.1836 61.2652L55.5177 22.3193Z" fill="#FDD14B" fill-opacity="0.75"/>
<path d="M69.7705 27.5649L74.5214 29.3135L60.1873 68.2594L55.4364 66.5109L69.7705 27.5649Z" fill="#FDD14B" fill-opacity="0.75"/>
<path d="M65.3318 17.6397C65.9618 17.8716 66.4716 18.3504 66.7491 18.9708C67.0266 19.5913 67.049 20.3025 66.8113 20.9481L52.4773 59.894L47.7263 58.1454L62.0604 19.1995C62.298 18.5539 62.7762 18.0269 63.3897 17.7344C64.0032 17.4419 64.7018 17.4078 65.3318 17.6397Z" fill="#FDD14B" fill-opacity="0.75"/>
<path d="M70.0827 19.3885C70.7128 19.6203 71.2226 20.0992 71.5001 20.7196C71.7775 21.3401 71.7999 22.0513 71.5623 22.6969L57.2282 61.6428L52.4773 59.8942L66.8114 20.9483C67.049 20.3027 67.5271 19.7757 68.1406 19.4832C68.7541 19.1906 69.4527 19.1566 70.0827 19.3885Z" fill="#FDD14B" fill-opacity="0.75"/>
<path d="M45.2152 50.3118C44.9002 50.1959 44.6453 49.9565 44.5065 49.6463C44.3678 49.336 44.3566 48.9804 44.4754 48.6576L53.8821 23.0994C54.0009 22.7766 54.24 22.5131 54.5468 22.3668C54.8535 22.2206 55.2028 22.2035 55.5178 22.3195C55.8328 22.4354 56.0877 22.6748 56.2265 22.985C56.3652 23.2953 56.3764 23.6509 56.2576 23.9737L46.8509 49.5319C46.7321 49.8547 46.493 50.1182 46.1862 50.2645C45.8795 50.4107 45.5302 50.4278 45.2152 50.3118Z" fill="#E4BC43" fill-opacity="0.75"/>
<path d="M49.9662 52.0604C49.6512 51.9444 49.3962 51.705 49.2575 51.3948C49.1188 51.0846 49.1076 50.729 49.2264 50.4062L58.6331 24.8479C58.7519 24.5251 58.991 24.2616 59.2977 24.1154C59.6045 23.9691 59.9538 23.9521 60.2688 24.068C60.5838 24.1839 60.8387 24.4234 60.9774 24.7336C61.1162 25.0438 61.1274 25.3994 61.0086 25.7222L51.6018 51.2805C51.483 51.6032 51.244 51.8668 50.9372 52.013C50.6305 52.1593 50.2812 52.1763 49.9662 52.0604Z" fill="#E4BC43" fill-opacity="0.75"/>
<path d="M59.468 55.5574C59.153 55.4415 58.8981 55.2021 58.7593 54.8919C58.6206 54.5816 58.6094 54.226 58.7282 53.9032L68.1349 28.345C68.2537 28.0222 68.4928 27.7587 68.7996 27.6124C69.1063 27.4662 69.4556 27.4491 69.7706 27.5651C70.0856 27.681 70.3405 27.9204 70.4793 28.2307C70.618 28.5409 70.6292 28.8965 70.5104 29.2193L61.1037 54.7775C60.9849 55.1003 60.7458 55.3638 60.439 55.5101C60.1323 55.6564 59.783 55.6734 59.468 55.5574Z" fill="#E4BC43" fill-opacity="0.75"/>
<path d="M54.717 53.809C54.402 53.693 54.1471 53.4536 54.0083 53.1434C53.8696 52.8332 53.8584 52.4776 53.9772 52.1548L65.1757 21.7283C65.2945 21.4055 65.5336 21.142 65.8403 20.9957C66.1471 20.8495 66.4964 20.8324 66.8114 20.9484C67.1264 21.0643 67.3813 21.3037 67.52 21.614C67.6588 21.9242 67.67 22.2798 67.5512 22.6026L56.3527 53.0291C56.2339 53.3519 55.9948 53.6154 55.6881 53.7616C55.3813 53.9079 55.032 53.9249 54.717 53.809Z" fill="#E4BC43" fill-opacity="0.75"/>
<path d="M33.2769 79.084L49.9051 85.204L48.5613 88.8552C48.3237 89.5008 47.8456 90.0278 47.2321 90.3203C46.6186 90.6129 45.92 90.6469 45.2899 90.415L33.4126 86.0436C32.7826 85.8117 32.2728 85.3329 31.9953 84.7124C31.7178 84.092 31.6954 83.3807 31.933 82.7352L33.2769 79.084Z" fill="#93573D" fill-opacity="0.75"/>
<path d="M21.4869 30.5132L23.9529 29.8592C25.2609 29.5123 26.6424 29.7068 27.7935 30.4C28.9446 31.0932 29.7709 32.2283 30.0908 33.5555L36.1212 58.5767L28.7234 60.5387L21.4869 30.5132Z" fill="#CE3536" fill-opacity="0.75"/>
<path d="M28.0983 67.5047C34.658 69.9189 41.9812 66.4272 44.4551 59.7055C46.929 52.9839 43.6168 45.5778 37.0571 43.1635C30.4975 40.7492 23.1743 44.241 20.7004 50.9626C18.2265 57.6842 21.5387 65.0904 28.0983 67.5047Z" fill="#FDD14B" fill-opacity="0.75"/>
<path d="M27.6504 68.7216C25.0664 67.7706 22.8294 66.0557 21.2223 63.7939C19.6152 61.5321 18.7101 58.8249 18.6216 56.0146C18.5331 53.2044 19.2651 50.4174 20.725 48.006C22.185 45.5945 24.3073 43.6671 26.8236 42.4673C29.3398 41.2675 32.1371 40.8492 34.8616 41.2654C37.5861 41.6817 40.1155 42.9136 42.1298 44.8056C44.1442 46.6975 45.5532 49.1644 46.1785 51.8944C46.8038 54.6244 46.6174 57.4948 45.6429 60.1426C44.3326 63.6905 41.7024 66.5863 38.3293 68.1946C34.9563 69.803 31.1158 69.9925 27.6504 68.7216ZM36.6093 44.3804C34.495 43.6023 32.1919 43.4841 29.991 44.0406C27.7901 44.5972 25.7904 45.8037 24.2447 47.5074C22.6989 49.2111 21.6767 51.3356 21.3071 53.6122C20.9375 55.8888 21.2373 58.2152 22.1684 60.2973C23.0996 62.3794 24.6203 64.1237 26.5383 65.3095C28.4564 66.4953 30.6855 67.0695 32.9439 66.9593C35.2023 66.8492 37.3885 66.0597 39.2261 64.6907C41.0637 63.3217 42.47 61.4347 43.2674 59.2683C44.333 56.3631 44.2305 53.164 42.9823 50.3729C41.7341 47.5819 39.4421 45.4268 36.6093 44.3804Z" fill="#E4BC43" fill-opacity="0.75"/>
<path d="M29.89 62.6363C33.8258 64.0849 38.2197 61.9898 39.7041 57.9568C41.1884 53.9238 39.2011 49.4801 35.2653 48.0316C31.3295 46.583 26.9356 48.6781 25.4513 52.711C23.9669 56.744 25.9542 61.1877 29.89 62.6363Z" fill="#FDD14B" fill-opacity="0.75"/>
<path d="M29.4421 63.8533C27.7978 63.248 26.3742 62.1568 25.3515 60.7174C24.3288 59.2781 23.7529 57.5553 23.6965 55.767C23.6402 53.9787 24.106 52.2051 25.0351 50.6706C25.9641 49.136 27.3147 47.9094 28.9159 47.1459C30.5172 46.3824 32.2973 46.1163 34.031 46.3811C35.7648 46.646 37.3744 47.43 38.6563 48.634C39.9382 49.8379 40.8348 51.4078 41.2327 53.145C41.6306 54.8823 41.512 56.7089 40.8919 58.3939C40.0581 60.6517 38.3843 62.4945 36.2378 63.5179C34.0913 64.5414 31.6474 64.662 29.4421 63.8533ZM34.8174 49.2485C33.6429 48.8162 32.3633 48.7506 31.1406 49.0598C29.9179 49.369 28.8069 50.0392 27.9482 50.9857C27.0895 51.9323 26.5215 53.1125 26.3162 54.3773C26.1109 55.6421 26.2774 56.9345 26.7947 58.0913C27.3121 59.248 28.1569 60.217 29.2225 60.8758C30.288 61.5346 31.5265 61.8536 32.7811 61.7924C34.0358 61.7312 35.2504 61.2926 36.2712 60.532C37.2921 59.7715 38.0734 58.7231 38.5164 57.5196C39.1084 55.9056 39.0515 54.1283 38.358 52.5777C37.6646 51.0271 36.3912 49.8299 34.8174 49.2485Z" fill="#E4BC43" fill-opacity="0.75"/>
<path d="M61.3548 79.7446C67.9145 82.1589 75.2376 78.6671 77.7115 71.9455C80.1854 65.2239 76.8733 57.8177 70.3136 55.4034C63.7539 52.9892 56.4308 56.4809 53.9569 63.2026C51.483 69.9242 54.7951 77.3303 61.3548 79.7446Z" fill="#FDD14B" fill-opacity="0.75"/>
<path d="M60.9069 80.9616C58.3229 80.0106 56.0859 78.2957 54.4788 76.0339C52.8716 73.772 51.9666 71.0648 51.8781 68.2546C51.7896 65.4444 52.5216 62.6574 53.9815 60.2459C55.4414 57.8345 57.5637 55.9071 60.08 54.7073C62.5963 53.5075 65.3936 53.0892 68.1181 53.5054C70.8425 53.9216 73.3719 55.1536 75.3863 57.0456C77.4007 58.9375 78.8096 61.4044 79.4349 64.1344C80.0602 66.8644 79.8738 69.7347 78.8993 72.3826C77.589 75.9305 74.9588 78.8263 71.5858 80.4346C68.2127 82.0429 64.3722 82.2325 60.9069 80.9616ZM69.8657 56.6204C67.7515 55.8423 65.4483 55.724 63.2475 56.2806C61.0466 56.8372 59.0469 58.0437 57.5011 59.7474C55.9554 61.4511 54.9331 63.5756 54.5636 65.8522C54.194 68.1288 54.4937 70.4552 55.4249 72.5373C56.356 74.6194 57.8768 76.3637 59.7948 77.5495C61.7128 78.7353 63.942 79.3095 66.2004 79.1993C68.4588 79.0892 70.645 78.2997 72.4826 76.9307C74.3201 75.5617 75.7265 73.6747 76.5238 71.5083C77.5895 68.6031 77.487 65.404 76.2388 62.6129C74.9906 59.8219 72.6986 57.6668 69.8657 56.6204Z" fill="#E4BC43" fill-opacity="0.75"/>
<path d="M63.1466 74.8765C67.0824 76.3251 71.4763 74.23 72.9607 70.197C74.445 66.1641 72.4577 61.7204 68.5219 60.2718C64.5861 58.8232 60.1922 60.9183 58.7079 64.9513C57.2235 68.9843 59.2108 73.4279 63.1466 74.8765Z" fill="#FDD14B" fill-opacity="0.75"/>
<path d="M62.6987 76.0935C61.0543 75.4883 59.6308 74.397 58.6081 72.9576C57.5854 71.5183 57.0094 69.7955 56.9531 68.0072C56.8968 66.2189 57.3626 64.4453 58.2917 62.9108C59.2207 61.3763 60.5713 60.1497 62.1725 59.3862C63.7738 58.6227 65.5539 58.3565 67.2876 58.6214C69.0214 58.8862 70.631 59.6702 71.9129 60.8742C73.1948 62.0781 74.0914 63.648 74.4893 65.3853C74.8872 67.1225 74.7686 68.9491 74.1484 70.6341C73.3146 72.8919 71.6409 74.7347 69.4944 75.7582C67.3479 76.7817 64.9039 76.9022 62.6987 76.0935ZM68.074 61.4888C66.8995 61.0565 65.6199 60.9908 64.3972 61.3C63.1745 61.6092 62.0635 62.2795 61.2048 63.226C60.3461 64.1725 59.7781 65.3528 59.5728 66.6175C59.3675 67.8823 59.534 69.1748 60.0513 70.3315C60.5686 71.4882 61.4135 72.4572 62.4791 73.116C63.5446 73.7748 64.7831 74.0938 66.0377 74.0326C67.2924 73.9714 68.5069 73.5328 69.5278 72.7723C70.5487 72.0117 71.33 70.9634 71.773 69.7598C72.365 68.1458 72.308 66.3685 71.6146 64.818C70.9211 63.2674 69.6478 62.0701 68.074 61.4888Z" fill="#E4BC43" fill-opacity="0.75"/>
<path d="M44.7266 73.6245C51.2863 76.0388 58.6095 72.547 61.0834 65.8254C63.5573 59.1038 60.2451 51.6976 53.6854 49.2833C47.1258 46.869 39.8026 50.3608 37.3287 57.0825C34.8548 63.8041 38.167 71.2102 44.7266 73.6245Z" fill="#FDD14B" fill-opacity="0.75"/>
<path d="M44.2786 74.8417C41.6946 73.8907 39.4576 72.1758 37.8505 69.914C36.2433 67.6522 35.3383 64.945 35.2498 62.1347C35.1613 59.3245 35.8933 56.5375 37.3532 54.1261C38.8131 51.7147 40.9354 49.7872 43.4517 48.5874C45.968 47.3876 48.7653 46.9693 51.4898 47.3856C54.2143 47.8018 56.7436 49.0337 58.758 50.9257C60.7724 52.8176 62.1813 55.2846 62.8066 58.0145C63.432 60.7445 63.2456 63.6149 62.271 66.2627C60.9607 69.8107 58.3305 72.7064 54.9575 74.3148C51.5844 75.9231 47.744 76.1126 44.2786 74.8417ZM53.2374 50.5006C51.1232 49.7224 48.8201 49.6042 46.6192 50.1608C44.4183 50.7174 42.4186 51.9238 40.8728 53.6275C39.3271 55.3312 38.3048 57.4557 37.9353 59.7323C37.5657 62.0089 37.8654 64.3353 38.7966 66.4174C39.7278 68.4995 41.2485 70.2438 43.1665 71.4296C45.0845 72.6154 47.3137 73.1896 49.5721 73.0794C51.8305 72.9693 54.0167 72.1798 55.8543 70.8108C57.6918 69.4418 59.0982 67.5548 59.8956 65.3884C60.9612 62.4832 60.8587 59.2841 59.6105 56.4931C58.3623 53.702 56.0703 51.5469 53.2374 50.5006Z" fill="#E4BC43" fill-opacity="0.75"/>
<path d="M46.5183 68.7564C50.4541 70.205 54.848 68.1099 56.3324 64.0769C57.8167 60.0439 55.8294 55.6003 51.8936 54.1517C47.9578 52.7031 43.5639 54.7982 42.0796 58.8312C40.5952 62.8641 42.5825 67.3078 46.5183 68.7564Z" fill="#FDD14B" fill-opacity="0.75"/>
<path d="M46.0704 69.9734C44.4261 69.3682 43.0025 68.2769 41.9798 66.8375C40.9571 65.3982 40.3811 63.6754 40.3248 61.8871C40.2685 60.0988 40.7343 58.3252 41.6634 56.7907C42.5924 55.2561 43.943 54.0296 45.5442 53.2661C47.1455 52.5025 48.9256 52.2364 50.6593 52.5013C52.3931 52.7661 54.0027 53.5501 55.2846 54.7541C56.5665 55.958 57.4631 57.5279 57.861 59.2651C58.2589 61.0024 58.1403 62.829 57.5201 64.514C56.6863 66.7718 55.0126 68.6146 52.8661 69.6381C50.7196 70.6615 48.2757 70.7821 46.0704 69.9734ZM51.4457 55.3687C50.2712 54.9364 48.9916 54.8707 47.7689 55.1799C46.5462 55.4891 45.4352 56.1594 44.5765 57.1059C43.7178 58.0524 43.1498 59.2326 42.9445 60.4974C42.7392 61.7622 42.9057 63.0546 43.423 64.2114C43.9403 65.3681 44.7852 66.3371 45.8508 66.9959C46.9163 67.6547 48.1548 67.9737 49.4094 67.9125C50.6641 67.8513 51.8787 67.4127 52.8995 66.6521C53.9204 65.8916 54.7017 64.8433 55.1447 63.6397C55.7367 62.0257 55.6798 60.2484 54.9863 58.6978C54.2929 57.1472 53.0195 55.95 51.4457 55.3687Z" fill="#E4BC43" fill-opacity="0.75"/>
<path d="M19.2208 47.6541L80.9829 70.3857L79.1912 75.2539C77.2904 80.4185 73.4652 84.6346 68.5572 86.9748C63.6493 89.315 58.0605 89.5875 53.0204 87.7325L29.2657 78.9896C24.2256 77.1346 20.1471 73.3039 17.9273 68.3403C15.7074 63.3768 15.5282 57.6868 17.4291 52.5223L19.2208 47.6541Z" fill="#AB6647" fill-opacity="0.75"/>
<path d="M19.2208 47.6541L80.9829 70.3857L79.1912 75.2539L17.4291 52.5223L19.2208 47.6541Z" fill="#E74444" fill-opacity="0.75"/>
</g>
<defs>
<clipPath id="clip0">
<rect width="81" height="83" fill="white" transform="translate(28.6682) rotate(20.2062)"/>
</clipPath>
</defs>
</svg>
