<svg width="66" height="66" viewBox="0 0 66 66" fill="none" xmlns="http://www.w3.org/2000/svg">
<g clip-path="url(#clip0)">
<path d="M22.4451 14.4847L20.7425 57.6384C20.7425 57.6384 29.5852 59.6105 42.9505 52.378C56.3158 45.1456 59.5018 36.6643 59.5018 36.6643L22.4451 14.4847Z" fill="#FDD14B"/>
<path d="M59.5018 36.6644C59.5018 36.6644 56.3158 45.1456 42.9505 52.3781C29.5853 59.6105 20.7425 57.6384 20.7425 57.6384L21.0504 49.8394C24.3241 50.3051 31.0167 50.3894 39.4151 45.8447C47.8135 41.3001 51.4038 35.6513 52.8046 32.656L59.5018 36.6644Z" fill="#AB6647"/>
<path d="M32.4649 23.4216C34.3102 22.423 35.0148 20.151 34.0385 18.3469C33.0622 16.5427 30.7748 15.8897 28.9295 16.8883C27.0841 17.8869 26.3796 20.1589 27.3558 21.9631C28.3321 23.7672 30.6195 24.4202 32.4649 23.4216Z" fill="#E74444"/>
<path d="M40.204 36.1267C42.0494 35.1281 42.7539 32.8561 41.7776 31.0519C40.8013 29.2478 38.5139 28.5948 36.6686 29.5934C34.8232 30.592 34.1187 32.864 35.095 34.6682C36.0713 36.4723 38.3587 37.1253 40.204 36.1267Z" fill="#E74444"/>
<path d="M32.4178 50.4759C34.2631 49.4773 34.9676 47.2053 33.9914 45.4011C33.0151 43.597 30.7277 42.944 28.8823 43.9426C27.037 44.9412 26.3324 47.2132 27.3087 49.0173C28.285 50.8215 30.5724 51.4745 32.4178 50.4759Z" fill="#E74444"/>
<path d="M25.7005 38.0626C27.5458 37.064 28.2504 34.7919 27.2741 32.9878C26.2978 31.1837 24.0104 30.5306 22.165 31.5292C20.3197 32.5278 19.6152 34.7999 20.5914 36.604C21.5677 38.4081 23.8551 39.0612 25.7005 38.0626Z" fill="#E74444"/>
<path d="M25.7434 25.3696C26.1125 25.1699 26.2534 24.7155 26.0581 24.3546C25.8629 23.9938 25.4054 23.8632 25.0363 24.0629C24.6672 24.2627 24.5263 24.7171 24.7216 25.0779C24.9168 25.4387 25.3743 25.5693 25.7434 25.3696Z" fill="#794832"/>
<path d="M34.9397 27.995C35.3088 27.7953 35.4497 27.3408 35.2544 26.98C35.0591 26.6192 34.6017 26.4886 34.2326 26.6883C33.8635 26.888 33.7226 27.3424 33.9179 27.7033C34.1131 28.0641 34.5706 28.1947 34.9397 27.995Z" fill="#794832"/>
<path d="M24.834 44.444C25.203 44.2443 25.3439 43.7899 25.1487 43.4291C24.9534 43.0682 24.496 42.9376 24.1269 43.1373C23.7578 43.3371 23.6169 43.7915 23.8122 44.1523C24.0074 44.5131 24.4649 44.6437 24.834 44.444Z" fill="#794832"/>
<path d="M34.2284 41.0496C34.5974 40.8499 34.7384 40.3955 34.5431 40.0346C34.3478 39.6738 33.8904 39.5432 33.5213 39.7429C33.1522 39.9426 33.0113 40.3971 33.2066 40.7579C33.4018 41.1187 33.8593 41.2493 34.2284 41.0496Z" fill="#794832"/>
<path d="M27.4723 26.968L28.8864 29.5813C28.8864 29.5813 27.2352 31.3195 28.2958 33.2795C29.3565 35.2395 31.7148 34.808 31.7148 34.808L33.129 37.4213C33.129 37.4213 28.0976 39.2993 25.6228 34.726C23.148 30.1527 27.4723 26.968 27.4723 26.968Z" fill="#3BA673"/>
<path d="M39.4581 33.1517L42.1312 31.7052C42.1312 31.7052 43.8601 33.3036 45.8649 32.2188C47.8697 31.1339 47.4773 28.8123 47.4773 28.8123L50.1503 27.3658C50.1503 27.3658 51.9569 32.3007 47.279 34.8321C42.6012 37.3634 39.4581 33.1517 39.4581 33.1517Z" fill="#3BA673"/>
<path d="M36.9403 41.2714C36.9403 41.2714 37.9444 43.9017 40.8345 44.7268C43.7245 45.5518 45.1148 43.6051 45.1148 43.6051C45.1148 43.6051 45.0599 41.2458 42.1697 40.4207C39.2796 39.5956 36.9403 41.2714 36.9403 41.2714Z" fill="#3BA673"/>
</g>
<defs>
<clipPath id="clip0">
<rect width="48.6293" height="47.5428" fill="white" transform="translate(0 24.0966) rotate(-28.4194)"/>
</clipPath>
</defs>
</svg>
